<svg width="102" height="102" fill="none" xmlns="http://www.w3.org/2000/svg"><g filter="url(#filter0_d)"><circle cx="51" cy="43" r="35" fill="#fff"/></g><path d="M48.438 56.625a11.855 11.855 0 01-4.688-.375 14.028 14.028 0 01-4.125-2 12.32 12.32 0 01-2.938-3.313 9.713 9.713 0 01-1.312-4.062 9.23 9.23 0 001.938 3.625 9.037 9.037 0 003.124 2.438c1.188.562 2.438.937 3.688 1.062s2.5-.063 3.688-.438a1.53 1.53 0 011.937 1.063 1.53 1.53 0 01-1.063 1.938c-.062 0-.187.062-.25.062zM66.25 42.75c.5 1.5.75 3.125.625 4.688a11.434 11.434 0 01-1.25 4.375c-1.375 2.687-3.813 4.687-6.5 5.562 2.5-1.375 4.313-3.625 5.063-6.125.374-1.25.5-2.562.374-3.812-.124-1.25-.5-2.375-1.124-3.5A1.542 1.542 0 0164 41.813a1.542 1.542 0 012.125.562c.063.063.063.188.125.25v.125zM51.813 28.125c1.5-.375 3.125-.5 4.687-.313 1.563.188 3.063.688 4.375 1.375 1.313.75 2.5 1.688 3.375 2.875.875 1.126 1.563 2.5 1.875 3.813a9.919 9.919 0 00-2.437-3.313c-1-.874-2.188-1.562-3.438-1.937-1.25-.438-2.562-.563-3.812-.5-1.25.063-2.438.438-3.563.938-.812.375-1.75.062-2.125-.75a1.523 1.523 0 01.75-2.063c.063-.063.188-.063.25-.125h.063zM40.375 42.063a10.884 10.884 0 01-1.062-4.626 10.87 10.87 0 01.812-4.5A11.63 11.63 0 0146 26.75c-2.312 1.625-3.875 4.063-4.375 6.625a9.782 9.782 0 000 3.813c.25 1.25.75 2.312 1.5 3.374.5.688.375 1.688-.375 2.188-.75.5-1.687.375-2.187-.375a.474.474 0 01-.125-.25l-.063-.063z" fill="#48B774"/><path d="M50.625 49.188c-1.125-2.875-8.125-4.5-9.75 1.062-1.812 6.188 9.938 10.688 10.813 11.5.75-.75 11.562-7.312 8.75-13.062-2.563-5.313-9.375-2.313-9.813.5zM69.25 38.563c-2.063-2.938-5.813-.5-5.75 1.187-.938-1.562-5.25-1.875-5.688 1.563-.5 3.812 6.938 5.375 7.563 5.75.375-.5 6.125-5.375 3.875-8.5zM54 27c.25-1.625-2.625-4.062-4.812-1.875-2.5 2.438 1.812 7.375 2 8 .562-.187 7.312-.562 7.5-3.937.187-3.125-3.75-3.375-4.688-2.188zm-7.062 12.188c-.25-4.376-5.813-4.126-6.875-2.313.062-2.25-4.313-5.25-7-1.875-3.063 3.75 3.75 10 4.125 10.813.687-.376 10-1.938 9.75-6.626z" fill="#48B774"/><defs><filter id="filter0_d" x="0" y="0" width="102" height="102" filterUnits="userSpaceOnUse" color-interpolation-filters="sRGB"><feFlood flood-opacity="0" result="BackgroundImageFix"/><feColorMatrix in="SourceAlpha" values="0 0 0 0 0 0 0 0 0 0 0 0 0 0 0 0 0 0 127 0"/><feOffset dy="8"/><feGaussianBlur stdDeviation="8"/><feColorMatrix values="0 0 0 0 0.225 0 0 0 0 0.225 0 0 0 0 0.225 0 0 0 0.06 0"/><feBlend in2="BackgroundImageFix" result="effect1_dropShadow"/><feBlend in="SourceGraphic" in2="effect1_dropShadow" result="shape"/></filter></defs></svg>