<svg width="70" height="70" fill="none" xmlns="http://www.w3.org/2000/svg"><rect width="70" height="70" rx="8" fill="#FFF6DD"/><path d="M32.965 12a.879.879 0 00-.88.879v5.42a.879.879 0 001.759 0v-5.42a.879.879 0 00-.88-.879zm11.533 11.537h-5.42a.879.879 0 000 1.758h5.42a.879.879 0 000-1.758zm-17.653-.002h-5.42a.879.879 0 000 1.758h5.42a.879.879 0 100-1.758zm1.768-4.712l-2.559-2.559a.879.879 0 00-1.243 1.243l2.56 2.56a.876.876 0 001.242 0 .879.879 0 000-1.244zm12.497-2.557a.88.88 0 00-1.243 0l-2.559 2.559a.879.879 0 001.243 1.243l2.56-2.56a.88.88 0 000-1.242z" fill="#F99E03"/><path d="M47.202 32.013c-.594 0-1.15.16-1.63.44a3.257 3.257 0 00-3.117-2.327c-.935 0-1.779.397-2.373 1.032a3.243 3.243 0 00-3.867-.667v-6.076a3.256 3.256 0 00-3.252-3.252 3.256 3.256 0 00-3.252 3.252v4.634a.879.879 0 001.758 0v-4.634c0-.824.67-1.494 1.494-1.494s1.494.67 1.494 1.494v14.713a.879.879 0 001.758 0v-5.75c0-.824.67-1.494 1.494-1.494s1.494.67 1.494 1.494v5.75a.879.879 0 001.758 0v-5.75a1.495 1.495 0 012.989 0v5.751a.879.879 0 001.757 0v-3.864a1.496 1.496 0 012.989 0v9.191c0 .655-.06 1.31-.176 1.948a.879.879 0 101.73.316 12.65 12.65 0 00.203-2.264v-9.19a3.256 3.256 0 00-3.252-3.253z" fill="#F99E03"/><path d="M46.51 52.388a.879.879 0 00-1.243-.043 10.748 10.748 0 01-7.356 2.897 10.846 10.846 0 01-9.713-6.095l-4.048-8.383a1.618 1.618 0 01.645-2.097 1.622 1.622 0 012.183.557l2.863 4.698a.88.88 0 001.63-.457v-8.613a.879.879 0 10-1.758 0v5.482l-1.234-2.025a3.35 3.35 0 00-4.563-1.164 3.383 3.383 0 00-1.35 4.383l4.05 8.383a12.53 12.53 0 004.627 5.17A12.53 12.53 0 0037.911 57a12.5 12.5 0 008.555-3.37.879.879 0 00.043-1.242zm2.272-2.982a.886.886 0 00-.622-.257.886.886 0 00-.621.257.886.886 0 00-.258.622.88.88 0 00.879.879.885.885 0 00.622-.258.884.884 0 00.257-.621.886.886 0 00-.258-.622zM31.211 31.418a.885.885 0 00-.621-.258.885.885 0 00-.622.258.886.886 0 00-.257.621.882.882 0 00.878.879.885.885 0 00.622-.258.885.885 0 00.258-.62.886.886 0 00-.258-.622z" fill="#F99E03"/></svg>