<svg width="70" height="70" fill="none" xmlns="http://www.w3.org/2000/svg"><rect width="70" height="70" rx="8" fill="#E9F6EE"/><path d="M21.743 25.23c0-2.342 1.845-4.24 4.122-4.241h1.876a4.07 4.07 0 002.903-1.232l1.311-1.35a4.043 4.043 0 015.831-.017l.002.002.017.015 1.312 1.35a4.062 4.062 0 002.904 1.232h1.874c2.277 0 4.124 1.898 4.124 4.241v1.926c0 1.12.43 2.194 1.197 2.989l1.313 1.35c1.615 1.652 1.624 4.336.018 5.998l-.002.002-.016.017-1.313 1.35a4.292 4.292 0 00-1.197 2.984v1.93c0 2.342-1.845 4.24-4.122 4.24h-1.88a4.06 4.06 0 00-2.903 1.233L37.8 50.597a4.041 4.041 0 01-5.833.017l-.017-.017-1.31-1.348a4.068 4.068 0 00-2.904-1.234h-1.872c-2.277 0-4.122-1.897-4.122-4.24v-1.932a4.29 4.29 0 00-1.2-2.985l-1.31-1.35c-1.615-1.65-1.624-4.333-.02-5.995 0-.002.002-.003.003-.005l.017-.017 1.31-1.35a4.303 4.303 0 001.2-2.989V25.23m8.453 14.092l9.37-9.637m-.139 9.503h.017m-9.133-9.375h.016" stroke="#48B774" stroke-width="2" stroke-linecap="round" stroke-linejoin="round"/></svg>