<svg width="40" height="40" fill="none" xmlns="http://www.w3.org/2000/svg"><path d="M20 22.5a6.25 6.25 0 116.25-6.25A6.257 6.257 0 0120 22.5zm0-10a3.75 3.75 0 100 7.5 3.75 3.75 0 000-7.5z" fill="#48B774"/><path d="M20 37.5L9.455 25.064a44.16 44.16 0 01-.435-.564 13.611 13.611 0 01-2.77-8.25 13.75 13.75 0 0127.5 0 13.605 13.605 0 01-2.769 8.246l-.001.004s-.375.492-.431.559L20 37.5zm-8.985-14.506c.002 0 .292.385.359.467L20 33.635l8.637-10.187c.055-.07.348-.457.35-.458a11.126 11.126 0 002.263-6.74 11.25 11.25 0 10-22.5 0 11.131 11.131 0 002.266 6.744h-.001z" fill="#48B774"/></svg>