<svg width="112" height="112" fill="none" xmlns="http://www.w3.org/2000/svg"><g filter="url(#filter0_d)"><circle cx="56" cy="48" r="40" fill="#fff"/></g><path d="M55 53.5a6.25 6.25 0 116.25-6.25A6.257 6.257 0 0155 53.5zm0-10a3.75 3.75 0 100 7.5 3.75 3.75 0 000-7.5z" fill="#48B774"/><path d="M55 68.5L44.455 56.064a44.716 44.716 0 01-.435-.564 13.611 13.611 0 01-2.77-8.25 13.75 13.75 0 0127.5 0 13.605 13.605 0 01-2.769 8.246l-.001.004s-.375.492-.431.559L55 68.5zm-8.985-14.506c.002 0 .292.385.359.467L55 64.635l8.638-10.188c.055-.068.347-.456.348-.457a11.126 11.126 0 002.264-6.74 11.25 11.25 0 10-22.5 0 11.131 11.131 0 002.266 6.744h-.001z" fill="#48B774"/><defs><filter id="filter0_d" x="0" y="0" width="112" height="112" filterUnits="userSpaceOnUse" color-interpolation-filters="sRGB"><feFlood flood-opacity="0" result="BackgroundImageFix"/><feColorMatrix in="SourceAlpha" values="0 0 0 0 0 0 0 0 0 0 0 0 0 0 0 0 0 0 127 0"/><feOffset dy="8"/><feGaussianBlur stdDeviation="8"/><feColorMatrix values="0 0 0 0 0.225 0 0 0 0 0.225 0 0 0 0 0.225 0 0 0 0.08 0"/><feBlend in2="BackgroundImageFix" result="effect1_dropShadow"/><feBlend in="SourceGraphic" in2="effect1_dropShadow" result="shape"/></filter></defs></svg>