<svg width="35" height="35" fill="none" xmlns="http://www.w3.org/2000/svg"><circle cx="17.5" cy="17.5" r="17" fill="#fff" stroke="#C6C6C6"/><path d="M17.477 7C11.69 7 7 11.69 7 17.476c0 5.786 4.69 10.476 10.477 10.476 5.786 0 10.476-4.69 10.476-10.476C27.953 11.69 23.263 7 17.477 7zm0 1.518c2.282 0 4.365.854 5.947 2.259-1.162 1.533-2.928 2.554-4.698 3.245a46.658 46.658 0 00-3.36-5.254c.691-.167 1.4-.25 2.111-.25zm-3.812.849c1.168 1.747 2.3 3.367 3.333 5.201-2.614.677-5.567 1.084-8.296 1.09a8.975 8.975 0 014.963-6.29v-.001zm10.753 2.446a8.922 8.922 0 012.017 5.604 21.016 21.016 0 00-6.232-.304c-.235-.588-.521-1.147-.795-1.75 1.809-.729 3.742-1.978 5.01-3.55zm-6.692 4.141c.224.477.484.983.728 1.5-2.918 1.286-6.021 3.005-7.632 6.02a8.927 8.927 0 01-2.3-6.26c3.125-.015 6.192-.406 9.204-1.26zm4.734 2.442c1.304 0 2.602.168 3.863.498a8.959 8.959 0 01-3.848 6.017c-.481-2.187-.94-4.28-1.75-6.39a12.027 12.027 0 011.735-.125zm3.91.163c-.007.051-.012.101-.02.152.008-.051.014-.101.02-.152zm-7.302.372c.825 2.133 1.473 4.496 1.908 6.795a8.929 8.929 0 01-3.499.709 8.919 8.919 0 01-5.497-1.886 13.322 13.322 0 017.087-5.618z" fill="#C6C6C6"/></svg>