<svg width="70" height="70" viewBox="0 0 70 70" fill="none" xmlns="http://www.w3.org/2000/svg">
<rect width="70" height="70" rx="8" fill="#FFF6DD"/>
<path d="M32.9648 12C32.4794 12 32.0859 12.3935 32.0859 12.8789V18.2989C32.0859 18.7842 32.4794 19.1778 32.9648 19.1778C33.4503 19.1778 33.8438 18.7843 33.8438 18.2989V12.8789C33.8438 12.3935 33.4503 12 32.9648 12Z" fill="#F99E03"/>
<path d="M44.4981 23.5371H39.0781C38.5927 23.5371 38.1992 23.9306 38.1992 24.416C38.1992 24.9014 38.5927 25.2949 39.0781 25.2949H44.4981C44.9835 25.2949 45.377 24.9014 45.377 24.416C45.377 23.9306 44.9835 23.5371 44.4981 23.5371Z" fill="#F99E03"/>
<path d="M26.8453 23.5349H21.4255C20.9401 23.5349 20.5466 23.9284 20.5466 24.4138C20.5466 24.8992 20.9401 25.2927 21.4255 25.2927H26.8454C27.3308 25.2927 27.7242 24.8992 27.7242 24.4138C27.7242 23.9284 27.3308 23.5349 26.8453 23.5349Z" fill="#F99E03"/>
<path d="M28.6133 18.8231L26.0544 16.2641C25.7112 15.9209 25.1547 15.9209 24.8114 16.2641C24.4682 16.6073 24.4682 17.1639 24.8114 17.5072L27.3704 20.0661C27.542 20.2377 27.767 20.3235 27.9919 20.3235C28.2168 20.3235 28.4418 20.2377 28.6133 20.0661C28.9565 19.7229 28.9565 19.1664 28.6133 18.8231Z" fill="#F99E03"/>
<path d="M41.1104 16.2658C40.7671 15.9226 40.2106 15.9226 39.8673 16.2658L37.3084 18.8248C36.9652 19.168 36.9652 19.7245 37.3084 20.0678C37.48 20.2395 37.705 20.3252 37.9299 20.3252C38.1549 20.3252 38.3799 20.2395 38.5514 20.0678L41.1104 17.5089C41.4536 17.1657 41.4536 16.6091 41.1104 16.2658Z" fill="#F99E03"/>
<path d="M47.2015 32.0133C46.6081 32.0133 46.052 32.1738 45.5725 32.4525C45.173 31.1088 43.9271 30.1258 42.4554 30.1258C41.52 30.1258 40.6762 30.5233 40.0823 31.1576C39.4885 30.5233 38.6446 30.1258 37.7093 30.1258C37.1708 30.1258 36.663 30.2581 36.2151 30.4908V24.4148C36.2151 22.6217 34.7563 21.1628 32.9632 21.1628C31.1701 21.1628 29.7112 22.6217 29.7112 24.4148V29.049C29.7112 29.5344 30.1047 29.9279 30.5901 29.9279C31.0756 29.9279 31.4691 29.5344 31.4691 29.049V24.4148C31.4691 23.5909 32.1393 22.9207 32.9632 22.9207C33.7871 22.9207 34.4573 23.5909 34.4573 24.4148V39.1284C34.4573 39.6138 34.8508 40.0073 35.3362 40.0073C35.8217 40.0073 36.2151 39.6138 36.2151 39.1284V33.3777C36.2151 32.5538 36.8854 31.8836 37.7093 31.8836C38.5332 31.8836 39.2034 32.5538 39.2034 33.3777V34.2259V39.1284C39.2034 39.6138 39.5969 40.0073 40.0823 40.0073C40.5678 40.0073 40.9612 39.6138 40.9612 39.1284V34.2259V33.3777C40.9612 32.5538 41.6315 31.8836 42.4554 31.8836C43.2793 31.8836 43.9495 32.5538 43.9495 33.3777V35.2652V36.7852V39.1285C43.9495 39.6139 44.343 40.0074 44.8284 40.0074C45.3139 40.0074 45.7073 39.6139 45.7073 39.1285V36.7852V35.2652C45.7073 34.4413 46.3776 33.771 47.2015 33.771C48.0254 33.771 48.6956 34.4413 48.6956 35.2652V44.4562C48.6956 45.1109 48.6366 45.7664 48.5202 46.4045C48.4331 46.8821 48.7496 47.3397 49.2271 47.4268C49.2804 47.4365 49.3334 47.4413 49.3858 47.4413C49.8022 47.4413 50.1721 47.1441 50.2495 46.7199C50.3848 45.978 50.4534 45.2164 50.4534 44.4561V35.2652C50.4534 33.4721 48.9946 32.0133 47.2015 32.0133Z" fill="#F99E03"/>
<path d="M46.5091 52.3878C46.178 52.0329 45.6218 52.0136 45.267 52.3447C43.2641 54.2132 40.6517 55.2422 37.9109 55.2422C33.7989 55.2422 29.9865 52.8496 28.1983 49.1468L24.1498 40.764C23.7846 40.0079 24.0682 39.0868 24.7953 38.667C25.5471 38.2331 26.526 38.4829 26.9777 39.224L29.8411 43.9222C30.0462 44.2586 30.4499 44.4175 30.8292 44.3111C31.2084 44.2046 31.4705 43.8588 31.4705 43.4648V34.8516C31.4705 34.3661 31.077 33.9727 30.5916 33.9727C30.1062 33.9727 29.7127 34.3661 29.7127 34.8516V40.3339L28.4787 38.3093C27.5184 36.7336 25.5143 36.222 23.9164 37.1447C22.3963 38.0223 21.8035 39.9479 22.5669 41.5284L26.6154 49.9113C27.6425 52.038 29.2428 53.8257 31.2431 55.081C33.2435 56.3364 35.5493 57 37.911 57C41.0984 57 44.1366 55.8032 46.4661 53.63C46.821 53.2988 46.8403 52.7428 46.5091 52.3878Z" fill="#F99E03"/>
<path d="M48.7815 49.4064C48.6181 49.243 48.3913 49.1489 48.1602 49.1489C47.929 49.1489 47.7022 49.243 47.5388 49.4064C47.3753 49.5699 47.2812 49.7967 47.2812 50.0278C47.2812 50.2599 47.3753 50.4857 47.5388 50.6492C47.7022 50.8127 47.929 50.9067 48.1602 50.9067C48.3913 50.9067 48.6181 50.8127 48.7815 50.6492C48.945 50.4857 49.0391 50.2599 49.0391 50.0278C49.0391 49.7967 48.945 49.5699 48.7815 49.4064Z" fill="#F99E03"/>
<path d="M31.2112 31.4177C31.0478 31.2542 30.821 31.1602 30.5898 31.1602C30.3587 31.1602 30.1319 31.2542 29.9685 31.4177C29.805 31.5812 29.7109 31.8079 29.7109 32.0391C29.7109 32.2702 29.805 32.497 29.9685 32.6604C30.1319 32.8239 30.3587 32.918 30.5898 32.918C30.821 32.918 31.0478 32.8239 31.2112 32.6604C31.3747 32.497 31.4688 32.2702 31.4688 32.0391C31.4688 31.8079 31.3747 31.5812 31.2112 31.4177Z" fill="#F99E03"/>
</svg>
