<svg width="70" height="70" viewBox="0 0 70 70" fill="none" xmlns="http://www.w3.org/2000/svg">
<rect width="70" height="70" rx="8" fill="#E9F6EE"/>
<path d="M21.7431 25.2303C21.7431 22.8884 23.5879 20.9909 25.8647 20.989H27.7405C28.8287 20.989 29.8714 20.5446 30.6444 19.7571L31.955 18.4071C33.561 16.7459 36.1714 16.7384 37.7865 18.3903L37.7884 18.3921L37.8048 18.4071L39.1173 19.7571C39.8902 20.5465 40.9329 20.989 42.0212 20.989H43.8951C46.172 20.989 48.0186 22.8865 48.0186 25.2303V27.1559C48.0186 28.2753 48.4488 29.3496 49.2162 30.1446L50.5287 31.4946C52.1438 33.1465 52.153 35.8315 50.547 37.4928L50.5451 37.4946L50.5287 37.5115L49.2162 38.8615C48.4488 39.6546 48.0186 40.7271 48.0186 41.8465V43.7759C48.0186 46.1178 46.1738 48.0153 43.897 48.0153H43.8951H42.0175C40.9293 48.0153 39.8847 48.4596 39.1136 49.249L37.8011 50.5971C36.197 52.2584 33.5884 52.2678 31.9733 50.6196C31.9714 50.6178 31.9696 50.6159 31.9678 50.614L31.9514 50.5971L30.6407 49.249C29.8696 48.4596 28.8251 48.0171 27.7368 48.0153H25.8647C23.5879 48.0153 21.7431 46.1178 21.7431 43.7759V41.8428C21.7431 40.7234 21.311 39.6509 20.5436 38.8578L19.2329 37.5078C17.6178 35.8578 17.6087 33.1746 19.2129 31.5134C19.2129 31.5115 19.2147 31.5096 19.2165 31.5078L19.2329 31.4909L20.5436 30.1409C21.311 29.3459 21.7431 28.2734 21.7431 27.1521V25.2303" stroke="#48B774" stroke-width="2" stroke-linecap="round" stroke-linejoin="round"/>
<path d="M30.1953 39.3221L39.5651 29.6846" stroke="#48B774" stroke-width="2" stroke-linecap="round" stroke-linejoin="round"/>
<path d="M39.4265 39.1876H39.4429" stroke="#48B774" stroke-width="2" stroke-linecap="round" stroke-linejoin="round"/>
<path d="M30.3095 29.8125H30.3259" stroke="#48B774" stroke-width="2" stroke-linecap="round" stroke-linejoin="round"/>
</svg>
