<svg width="102" height="102" viewBox="0 0 102 102" fill="none" xmlns="http://www.w3.org/2000/svg">
<g filter="url(#filter0_d)">
<circle cx="51" cy="43" r="35" fill="white"/>
</g>
<path d="M48.4375 56.625C46.875 56.8125 45.25 56.6875 43.75 56.25C42.25 55.8125 40.875 55.125 39.625 54.25C38.4375 53.3125 37.4375 52.1875 36.6875 50.9375C35.9375 49.6875 35.5 48.25 35.375 46.875C35.75 48.25 36.4375 49.5 37.3125 50.5C38.1875 51.5625 39.25 52.375 40.4375 52.9375C41.625 53.5 42.875 53.875 44.125 54C45.375 54.125 46.625 53.9375 47.8125 53.5625C48.625 53.3125 49.5 53.75 49.75 54.625C50 55.4375 49.5625 56.3125 48.6875 56.5625C48.625 56.5625 48.5 56.625 48.4375 56.625Z" fill="#48B774"/>
<path d="M66.25 42.7502C66.75 44.2502 67 45.8752 66.875 47.4377C66.75 49.0002 66.3125 50.5002 65.625 51.8127C64.25 54.5002 61.8125 56.5002 59.125 57.3752C61.625 56.0002 63.4375 53.7502 64.1875 51.2502C64.5625 50.0002 64.6875 48.6877 64.5625 47.4377C64.4375 46.1877 64.0625 45.0627 63.4375 43.9377C63 43.1877 63.25 42.2502 64 41.8127C64.75 41.3752 65.6875 41.6252 66.125 42.3752C66.1875 42.4377 66.1875 42.5627 66.25 42.6252V42.7502Z" fill="#48B774"/>
<path d="M51.8127 28.125C53.3127 27.75 54.9377 27.625 56.5002 27.8125C58.0627 28 59.5627 28.5 60.8752 29.1875C62.1877 29.9375 63.3752 30.875 64.2502 32.0625C65.1252 33.1875 65.8127 34.5625 66.1252 35.875C65.5627 34.625 64.6877 33.4375 63.6877 32.5625C62.6877 31.6875 61.5002 31 60.2502 30.625C59.0002 30.1875 57.6877 30.0625 56.4377 30.125C55.1877 30.1875 54.0002 30.5625 52.8752 31.0625C52.0627 31.4375 51.1252 31.125 50.7502 30.3125C50.3752 29.5625 50.6877 28.625 51.5002 28.25C51.5627 28.1875 51.6877 28.1875 51.7502 28.125H51.8127Z" fill="#48B774"/>
<path d="M40.3751 42.0625C39.6876 40.625 39.3126 39 39.3126 37.4375C39.2501 35.875 39.5626 34.3125 40.1251 32.9375C41.2501 30.125 43.4376 27.9375 46.0001 26.75C43.6876 28.375 42.1251 30.8125 41.6251 33.375C41.3751 34.6875 41.3751 35.9375 41.6251 37.1875C41.8751 38.4375 42.3751 39.5 43.1251 40.5625C43.6251 41.25 43.5001 42.25 42.7501 42.75C42.0001 43.25 41.0626 43.125 40.5626 42.375C40.5001 42.3125 40.4376 42.1875 40.4376 42.125L40.3751 42.0625Z" fill="#48B774"/>
<path d="M50.6251 49.1876C49.5001 46.3126 42.5001 44.6876 40.8751 50.2501C39.0626 56.4376 50.8126 60.9376 51.6876 61.7501C52.4376 61.0001 63.2501 54.4376 60.4376 48.6876C57.8751 43.3751 51.0626 46.3751 50.6251 49.1876Z" fill="#48B774"/>
<path d="M69.25 38.5627C67.1875 35.6252 63.4375 38.0627 63.5 39.7502C62.5625 38.1877 58.25 37.8752 57.8125 41.3127C57.3125 45.1252 64.75 46.6877 65.375 47.0627C65.75 46.5627 71.5 41.6877 69.25 38.5627Z" fill="#48B774"/>
<path d="M54.0002 27.0001C54.2502 25.3751 51.3752 22.9376 49.1877 25.1251C46.6877 27.5626 51.0002 32.5001 51.1877 33.1251C51.7502 32.9376 58.5002 32.5626 58.6877 29.1876C58.8752 26.0626 54.9377 25.8126 54.0002 27.0001Z" fill="#48B774"/>
<path d="M46.9376 39.1875C46.6876 34.8125 41.1251 35.0625 40.0626 36.875C40.1251 34.625 35.7501 31.625 33.0626 35C30.0001 38.75 36.8126 45 37.1876 45.8125C37.8751 45.4375 47.1876 43.875 46.9376 39.1875Z" fill="#48B774"/>
<defs>
<filter id="filter0_d" x="0" y="0" width="102" height="102" filterUnits="userSpaceOnUse" color-interpolation-filters="sRGB">
<feFlood flood-opacity="0" result="BackgroundImageFix"/>
<feColorMatrix in="SourceAlpha" type="matrix" values="0 0 0 0 0 0 0 0 0 0 0 0 0 0 0 0 0 0 127 0"/>
<feOffset dy="8"/>
<feGaussianBlur stdDeviation="8"/>
<feColorMatrix type="matrix" values="0 0 0 0 0.225 0 0 0 0 0.225 0 0 0 0 0.225 0 0 0 0.06 0"/>
<feBlend mode="normal" in2="BackgroundImageFix" result="effect1_dropShadow"/>
<feBlend mode="normal" in="SourceGraphic" in2="effect1_dropShadow" result="shape"/>
</filter>
</defs>
</svg>
