<svg width="30" height="30" viewBox="0 0 30 30" fill="none" xmlns="http://www.w3.org/2000/svg">
<path fill-rule="evenodd" clip-rule="evenodd" d="M21.25 13.75C20.2611 13.75 19.2944 13.4568 18.4722 12.9074C17.6499 12.3579 17.009 11.5771 16.6306 10.6634C16.2522 9.74979 16.1531 8.74446 16.3461 7.77455C16.539 6.80465 17.0152 5.91373 17.7145 5.21447C18.4137 4.51521 19.3046 4.039 20.2746 3.84608C21.2445 3.65315 22.2498 3.75217 23.1634 4.1306C24.077 4.50904 24.8579 5.14991 25.4074 5.97215C25.9568 6.7944 26.25 7.7611 26.25 8.75C26.25 10.5913 24.5838 16.425 21.25 26.25H18.75L21.25 13.75ZM8.75 13.75C7.7611 13.75 6.7944 13.4568 5.97215 12.9074C5.14991 12.3579 4.50904 11.5771 4.1306 10.6634C3.75217 9.74979 3.65315 8.74446 3.84608 7.77455C4.039 6.80465 4.51521 5.91373 5.21447 5.21447C5.91373 4.51521 6.80465 4.039 7.77455 3.84608C8.74446 3.65315 9.74979 3.75217 10.6634 4.1306C11.5771 4.50904 12.3579 5.14991 12.9074 5.97215C13.4568 6.7944 13.75 7.7611 13.75 8.75C13.75 10.5913 12.0838 16.425 8.75 26.25H6.25L8.75 13.75Z" fill="#A6A6A6"/>
</svg>
