<svg width="15" height="20" fill="none" xmlns="http://www.w3.org/2000/svg"><path d="M10.56 4.673L7.502 1.615 4.445 4.673l-.808-.808L7.502 0l3.866 3.865-.808.808z" fill="#888"/><path d="M6.927.808H8.08v12.116H6.927V.808z" fill="#888"/><path d="M13.27 19.846H1.73A1.7 1.7 0 010 18.116V7.73C0 6.75.75 6 1.73 6h4.04v1.153H1.73c-.345 0-.576.23-.576.577v10.385c0 .346.23.577.577.577h11.538c.346 0 .577-.231.577-.577V7.73c0-.346-.23-.577-.577-.577H9.231V6h4.038A1.7 1.7 0 0115 7.731v10.385a1.7 1.7 0 01-1.73 1.73z" fill="#888"/></svg>