<svg width="112" height="112" viewBox="0 0 112 112" fill="none" xmlns="http://www.w3.org/2000/svg">
<g filter="url(#filter0_d)">
<circle cx="56" cy="48" r="40" fill="white"/>
</g>
<path d="M55 53.5C53.7639 53.5 52.5555 53.1334 51.5277 52.4467C50.4999 51.7599 49.6988 50.7838 49.2258 49.6418C48.7527 48.4997 48.6289 47.2431 48.8701 46.0307C49.1113 44.8183 49.7065 43.7047 50.5806 42.8306C51.4547 41.9565 52.5683 41.3613 53.7807 41.1201C54.9931 40.8789 56.2497 41.0027 57.3918 41.4758C58.5338 41.9488 59.5099 42.7499 60.1967 43.7777C60.8834 44.8055 61.25 46.0139 61.25 47.25C61.248 48.907 60.5889 50.4956 59.4172 51.6672C58.2456 52.8389 56.657 53.498 55 53.5ZM55 43.5C54.2583 43.5 53.5333 43.7199 52.9166 44.132C52.2999 44.544 51.8193 45.1297 51.5355 45.8149C51.2516 46.5002 51.1774 47.2542 51.3221 47.9816C51.4668 48.709 51.8239 49.3772 52.3484 49.9017C52.8728 50.4261 53.541 50.7833 54.2684 50.9279C54.9958 51.0726 55.7498 50.9984 56.4351 50.7146C57.1203 50.4307 57.706 49.9501 58.118 49.3334C58.5301 48.7167 58.75 47.9917 58.75 47.25C58.749 46.2557 58.3536 45.3025 57.6506 44.5994C56.9475 43.8964 55.9943 43.501 55 43.5Z" fill="#48B774"/>
<path d="M55 68.5L44.455 56.0638C44.3085 55.877 44.1635 55.6891 44.02 55.5C42.2187 53.1272 41.2456 50.229 41.25 47.25C41.25 43.6033 42.6987 40.1059 45.2773 37.5273C47.8559 34.9487 51.3533 33.5 55 33.5C58.6467 33.5 62.1441 34.9487 64.7227 37.5273C67.3014 40.1059 68.75 43.6033 68.75 47.25C68.7544 50.2277 67.7817 53.1246 65.9813 55.4963L65.98 55.5C65.98 55.5 65.605 55.9925 65.5488 56.0588L55 68.5ZM46.015 53.9938C46.0175 53.9938 46.3075 54.3787 46.3738 54.4612L55 64.635L63.6375 54.4475C63.6925 54.3787 63.985 53.9913 63.9863 53.99C65.4577 52.0514 66.2529 49.6838 66.25 47.25C66.25 44.2663 65.0648 41.4048 62.955 39.295C60.8452 37.1853 57.9837 36 55 36C52.0163 36 49.1548 37.1853 47.0451 39.295C44.9353 41.4048 43.75 44.2663 43.75 47.25C43.7474 49.6853 44.5435 52.0543 46.0163 53.9938H46.015Z" fill="#48B774"/>
<defs>
<filter id="filter0_d" x="0" y="0" width="112" height="112" filterUnits="userSpaceOnUse" color-interpolation-filters="sRGB">
<feFlood flood-opacity="0" result="BackgroundImageFix"/>
<feColorMatrix in="SourceAlpha" type="matrix" values="0 0 0 0 0 0 0 0 0 0 0 0 0 0 0 0 0 0 127 0"/>
<feOffset dy="8"/>
<feGaussianBlur stdDeviation="8"/>
<feColorMatrix type="matrix" values="0 0 0 0 0.225 0 0 0 0 0.225 0 0 0 0 0.225 0 0 0 0.08 0"/>
<feBlend mode="normal" in2="BackgroundImageFix" result="effect1_dropShadow"/>
<feBlend mode="normal" in="SourceGraphic" in2="effect1_dropShadow" result="shape"/>
</filter>
</defs>
</svg>
