<svg width="35" height="35" viewBox="0 0 35 35" fill="none" xmlns="http://www.w3.org/2000/svg">
<circle cx="17.5" cy="17.5" r="17" fill="white" stroke="#C6C6C6"/>
<path d="M17.4766 7C11.6906 7 7.00037 11.6902 7.00037 17.4762C7.00037 23.2622 11.6906 27.9524 17.4766 27.9524C23.2626 27.9524 27.9527 23.2622 27.9527 17.4762C27.9527 11.6902 23.2626 7 17.4766 7ZM17.4766 8.518C19.7588 8.518 21.842 9.37181 23.4239 10.7767C22.2616 12.3099 20.4958 13.3308 18.7264 14.0217C17.7247 12.1974 16.6021 10.4422 15.3661 8.76786C16.0574 8.60123 16.766 8.51736 17.4771 8.518H17.4766ZM13.6653 9.36657C14.8334 11.114 15.9648 12.7341 16.9983 14.568C14.3845 15.2453 11.4307 15.6518 8.70222 15.6586C9.27737 12.8677 11.1521 10.5504 13.6653 9.3671V9.36657ZM24.4176 11.8128C25.712 13.3946 26.4241 15.373 26.4347 17.417C24.3626 17.0084 22.3019 16.9016 20.2035 17.1132C19.9678 16.525 19.6818 15.966 19.4078 15.3637C21.2166 14.634 23.1505 13.3852 24.4176 11.8122V11.8128ZM17.7259 15.954C17.9501 16.4307 18.2099 16.9367 18.454 17.4537C15.5364 18.7401 12.4328 20.4593 10.8221 23.4733C9.2758 21.7621 8.45174 19.519 8.52256 17.2138C11.6471 17.1991 14.714 16.8083 17.7259 15.954ZM22.4601 18.3965C23.7637 18.3968 25.062 18.564 26.3232 18.8941C26.1287 20.1074 25.6867 21.2677 25.0247 22.3028C24.3626 23.338 23.4946 24.2258 22.4747 24.9111C21.9939 22.7242 21.5356 20.6316 20.7252 18.5217C21.2995 18.438 21.8792 18.396 22.4596 18.396L22.4601 18.3965ZM26.3698 18.5589C26.3635 18.6102 26.3577 18.6605 26.3504 18.7108C26.3577 18.66 26.364 18.6097 26.3698 18.5589ZM19.0679 18.9308C19.8934 21.0643 20.5414 23.4267 20.9761 25.7257C19.8694 26.1952 18.6793 26.4365 17.4771 26.4349C15.4855 26.4378 13.5502 25.7739 11.9797 24.5492C13.6019 21.9176 16.1147 19.926 19.0674 18.9313L19.0679 18.9308Z" fill="#C6C6C6"/>
</svg>
