<svg width="35" height="35" viewBox="0 0 35 35" fill="none" xmlns="http://www.w3.org/2000/svg">
<circle cx="17.5" cy="17.5" r="17" fill="white" stroke="#C6C6C6"/>
<path d="M28 9.00914C27.1294 9.62321 26.1656 10.0929 25.1455 10.4001C24.5979 9.77051 23.8703 9.32432 23.0609 9.1218C22.2516 8.91929 21.3995 8.97023 20.6201 9.26774C19.8406 9.56524 19.1713 10.095 18.7027 10.7852C18.2341 11.4755 17.9888 12.2931 18 13.1273V14.0364C16.4024 14.0778 14.8193 13.7235 13.3918 13.005C11.9643 12.2865 10.7367 11.2261 9.81818 9.91823C9.81818 9.91823 6.18182 18.1 14.3636 21.7364C12.4914 23.0073 10.2611 23.6445 8 23.5546C16.1818 28.1 26.1818 23.5546 26.1818 13.1001C26.181 12.8468 26.1566 12.5942 26.1091 12.3455C27.0369 11.4305 27.6917 10.2752 28 9.00914Z" fill="#C6C6C6"/>
</svg>
