<svg width="18" height="18" viewBox="0 0 18 18" fill="none" xmlns="http://www.w3.org/2000/svg">
<path d="M15.75 1.125C16.0484 1.125 16.3345 1.24353 16.5455 1.4545C16.7565 1.66548 16.875 1.95163 16.875 2.25V11.25C16.875 11.5484 16.7565 11.8345 16.5455 12.0455C16.3345 12.2565 16.0484 12.375 15.75 12.375H4.96575C4.36906 12.3751 3.79686 12.6123 3.375 13.0343L1.125 15.2843V2.25C1.125 1.95163 1.24353 1.66548 1.4545 1.4545C1.66548 1.24353 1.95163 1.125 2.25 1.125H15.75ZM2.25 0C1.65326 0 1.08097 0.237053 0.65901 0.65901C0.237053 1.08097 0 1.65326 0 2.25L0 16.6421C2.36417e-05 16.7534 0.0330667 16.8622 0.0949469 16.9547C0.156827 17.0473 0.244763 17.1193 0.347624 17.1618C0.450486 17.2044 0.563649 17.2154 0.672791 17.1936C0.781932 17.1718 0.882147 17.1181 0.96075 17.0392L4.17037 13.8296C4.3813 13.6186 4.66741 13.5001 4.96575 13.5H15.75C16.3467 13.5 16.919 13.2629 17.341 12.841C17.7629 12.419 18 11.8467 18 11.25V2.25C18 1.65326 17.7629 1.08097 17.341 0.65901C16.919 0.237053 16.3467 0 15.75 0L2.25 0Z" fill="#888888"/>
</svg>
