<svg width="15" height="20" viewBox="0 0 15 20" fill="none" xmlns="http://www.w3.org/2000/svg">
<path d="M10.56 4.67308L7.50235 1.61538L4.44466 4.67308L3.63696 3.86539L7.50235 0L11.3677 3.86539L10.56 4.67308Z" fill="#888888"/>
<path d="M6.92664 0.80835H8.08048V12.9237H6.92664V0.80835Z" fill="#888888"/>
<path d="M13.2692 19.8464H1.73077C0.75 19.8464 0 19.0964 0 18.1156V7.73101C0 6.75024 0.75 6.00024 1.73077 6.00024H5.76923V7.15409H1.73077C1.38462 7.15409 1.15385 7.38486 1.15385 7.73101V18.1156C1.15385 18.4618 1.38462 18.6926 1.73077 18.6926H13.2692C13.6154 18.6926 13.8462 18.4618 13.8462 18.1156V7.73101C13.8462 7.38486 13.6154 7.15409 13.2692 7.15409H9.23077V6.00024H13.2692C14.25 6.00024 15 6.75024 15 7.73101V18.1156C15 19.0964 14.25 19.8464 13.2692 19.8464Z" fill="#888888"/>
</svg>
