<svg width="102" height="102" viewBox="0 0 102 102" fill="none" xmlns="http://www.w3.org/2000/svg">
<g filter="url(#filter0_d)">
<circle cx="51" cy="43" r="35" fill="white"/>
</g>
<path d="M55.9997 54.25V51.75C55.9997 50.4239 55.4729 49.1521 54.5352 48.2145C53.5975 47.2768 52.3258 46.75 50.9997 46.75H42.2497C40.9236 46.75 39.6518 47.2768 38.7141 48.2145C37.7765 49.1521 37.2497 50.4239 37.2497 51.75V54.25" stroke="#48B774" stroke-width="2" stroke-linecap="round" stroke-linejoin="round"/>
<path d="M46.625 41.75C49.3864 41.75 51.625 39.5114 51.625 36.75C51.625 33.9886 49.3864 31.75 46.625 31.75C43.8636 31.75 41.625 33.9886 41.625 36.75C41.625 39.5114 43.8636 41.75 46.625 41.75Z" stroke="#48B774" stroke-width="2" stroke-linecap="round" stroke-linejoin="round"/>
<path d="M57.2503 41.75L59.7503 44.25L64.7503 39.25" stroke="#48B774" stroke-width="2" stroke-linecap="round" stroke-linejoin="round"/>
<defs>
<filter id="filter0_d" x="0" y="0" width="102" height="102" filterUnits="userSpaceOnUse" color-interpolation-filters="sRGB">
<feFlood flood-opacity="0" result="BackgroundImageFix"/>
<feColorMatrix in="SourceAlpha" type="matrix" values="0 0 0 0 0 0 0 0 0 0 0 0 0 0 0 0 0 0 127 0"/>
<feOffset dy="8"/>
<feGaussianBlur stdDeviation="8"/>
<feColorMatrix type="matrix" values="0 0 0 0 0.225 0 0 0 0 0.225 0 0 0 0 0.225 0 0 0 0.06 0"/>
<feBlend mode="normal" in2="BackgroundImageFix" result="effect1_dropShadow"/>
<feBlend mode="normal" in="SourceGraphic" in2="effect1_dropShadow" result="shape"/>
</filter>
</defs>
</svg>
